# xmcd
#
# Track frame offsets: 
#        182
#        16285
#        34817
#        53790
#        70520
#        92407
#        111532
#        130217
#        155182
#
# Disc length: 2349 seconds
#
# Revision: 3
# Processed by: cddbd v1.5.2PL0 Copyright (c) Steve Scherf et al.
# Submitted via: ExactAudioCopy v0.99pb3
#
DISCID=74092b09
DTITLE=Det Hedenske Folk and Abyssic Hate - United By Heathen Blood
DYEAR=1997
DGENRE=Black Metal
TTITLE0=Northland Rules: Supreme...
TTITLE1=True Northern
TTITLE2=Reverse the Time to Old...
TTITLE3=From an Unknown Plane...
TTITLE4=Cleansing of an Ancient Race
TTITLE5=Land of Impenetrable Darkness
TTITLE6=Damned for Eternity
TTITLE7=Tarrasque
TTITLE8=Bloodletting
EXTD=YEAR: 1997 ID3G: 9
EXTT0=
EXTT1=
EXTT2=
EXTT3=
EXTT4=
EXTT5=
EXTT6=
EXTT7=
EXTT8=
PLAYORDER=
